Patient4_TMGait_0pt4_01_left_04_EMG.mot
version=1
nRows=13
nColumns=33
inDegrees=no
endheader
time	1LAddLong	2LGlutMax	3LGlutMed	4LIliopsoas	5LSemiMemb	6LBicFemLong	7LRecFem	8LVastMed	9LVastLat	10LGasMed	11LTibAnt	12lTibPost	13LPeroneusLong	14LSol	15LExtDigLong	16LFlexDigLong	17RAddLong	18RGlutMax	19RGlutMed	20RIliopsoas	21RSemiMemb	22RBicFemLong	23RRecFem	24RVastMed	25RVastLat	26RGasMed	27RTibAnt	28RTibPost	29RPeroneusLong	30RSol	31RExtDigLong	32RFlexDigLong
4.567	0.00473	-0.11063	0.07309	0.001221	-0.050049	-0.074005	-0.003052	0.037537	-0.065308	0.011444	-0.015717	0.047913	-0.043182	-0.21042	0.27817	-0.011902	-0.005951	0.20584	-0.088043	-0.037384	0.030975	-0.15564	0.46204	0.11795	-0.034943	0.00824	-1.0559	-0.002289	0.31021	-0.24902	-0.001984	-0.01358
4.568	0.011292	-0.084839	-0.02655	0.019836	-0.091553	0.011749	-0.002289	0.039825	-0.1236	0.038757	-0.018616	0.04776	-0.051575	-0.15595	0.027618	0.20844	-0.00946	0.17899	-0.059052	-0.005341	0.006104	-0.1059	0.4509	0.0914	-0.022888	0.011749	-1.0176	-0.004578	0.24735	-0.34195	0.007172	-0.019226
4.569	0.014954	-0.12573	-0.17899	0.030212	0.056763	-0.037384	-0.088654	0.019836	-0.030975	0.033722	0.025024	0.047455	-0.092316	-0.06134	0.005646	0.25009	-0.040588	0.17258	-0.11017	0.027618	-0.001526	-0.088196	0.40558	0.14603	-0.011292	0.006409	-1.4322	-0.004883	0.075836	-0.37399	0.00061	-0.021667
4.57	0.003052	-0.12253	-0.23621	0.020142	0.09964	-0.011292	-0.11231	-0.007172	0.043793	0.032349	0.034027	0.052338	-0.082397	-0.046082	0.062103	-0.077209	-0.088806	0.1503	-0.16922	-0.070648	0.008545	-0.030823	0.39856	0.15564	-0.030212	0.01236	-0.68054	-0.005951	0.12711	-0.46524	-0.001831	-0.019531
4.571	-0.008698	-0.10574	-0.17654	-0.002747	0.027161	0.089722	-0.092773	-0.008087	0.011444	0.016632	0.015411	0.055695	-0.034637	-0.077057	0.09201	-0.82748	-0.12161	0.18707	-0.13748	-0.13626	0.037842	-0.084229	0.40955	0.13397	-0.030212	0.014954	-0.5336	-0.007019	0.14023	-0.52246	0.003357	-0.016785
4.572	-0.005493	-0.05249	-0.12466	0.005341	-0.024109	0.088348	-0.11704	0.016785	-0.039368	0.00885	0.070801	0.052032	-0.08255	-0.066376	0.26459	0.12177	-0.16571	0.24017	-0.2002	-0.15045	0.015259	-0.19394	0.48798	0.079803	-0.050354	0.001678	0.12863	-0.002136	0.11047	-0.3331	-0.002747	-0.018616
4.573	-0.009918	-0.023499	-0.13947	-0.005798	-0.068207	0.022583	-0.13138	-0.001678	0.037384	0.030823	-0.037842	0.05127	-0.088348	-0.071716	0.25818	0.046844	-0.12528	0.19547	-0.20142	-0.16724	0.027618	-0.24277	0.45578	0.013885	-0.062408	0.002289	0.46387	-0.00473	-0.022278	-0.16678	-0.001068	-0.026093
4.574	-0.013733	-0.023499	-0.092468	-0.001068	-0.032654	-0.080261	-0.12634	0.015564	0.045013	0.012207	-0.12955	0.045776	-0.024261	-0.051727	0.67749	-0.23422	-0.058289	0.18738	-0.057526	-0.11215	0.004578	-0.22842	0.3746	-0.02121	-0.048523	-0.005188	0.61859	-0.006256	-0.33524	-0.015106	-0.002136	-0.023193
4.575	-0.023041	-0.048676	-0.22476	0.00061	0.007935	-0.16251	-0.13397	0.020447	0.023041	-0.003967	0.042267	0.050659	-0.037842	-0.081024	0.35156	0.36087	-0.009766	0.19791	-0.20569	-0.077972	0.001831	-0.2536	0.37048	-0.055389	-0.052185	0.001984	0.19394	-0.009766	0.10452	0.078735	-0.002136	-0.020599
4.576	-0.018005	-0.036163	-0.14603	0.003052	0.017548	-0.075531	-0.17624	0.030823	0.037842	0.001373	0.1387	0.041504	-0.091553	-0.10376	-0.36758	0.12146	0.028992	0.18036	-0.3154	-0.034637	-0.006256	-0.24048	0.29556	-0.038605	-0.047913	-0.003662	0.019836	-0.007782	0.023346	0.13382	-0.002441	-0.02533
4.577	-0.014801	0.03952	-0.18158	0.009766	-0.002441	-0.036469	-0.18555	0.030975	-0.018616	0.027618	0.11246	0.036469	-0.10117	-0.14572	-0.13947	0.032501	0.059814	0.15335	-0.3949	0.052032	-0.022736	-0.22781	0.23178	-0.084381	-0.034485	-0.001831	-1.0149	-0.006256	0.12344	0.11871	-0.002136	-0.022278
4.578	-0.023804	0.1268	-0.22201	0.03067	-0.02655	-0.050201	-0.23483	0.018463	-0.018158	0.041809	0.078125	0.032959	-0.13672	-0.11704	-0.15945	0.021515	0.10361	0.2034	-0.26627	0.11032	-0.024414	-0.23895	0.17044	-0.079346	-0.034637	-0.004272	-0.95261	-0.008698	0.12741	0.2533	-0.001526	-0.018463
4.579	-0.006256	0.14908	-0.19714	0.00885	-0.025024	-0.046082	-0.32669	-0.011444	0.073547	0.006561	0.032196	0.025177	-0.10864	-0.020447	0.088959	0.009155	0.085449	0.24033	0.028076	0.033569	-0.028534	-0.23025	0.28061	-0.028839	-0.016479	-0.003052	-0.29129	-0.002441	0.019836	0.13626	-0.001068	-0.001373
